<?xml version="1.0" standalone="no"?>
<!DOCTYPE svg PUBLIC "-//W3C//DTD SVG 20010904//EN"
 "http://www.w3.org/TR/2001/REC-SVG-20010904/DTD/svg10.dtd">
<svg version="1.0" xmlns="http://www.w3.org/2000/svg"
 width="920.000000pt" height="875.000000pt" viewBox="0 0 920.000000 875.000000"
 preserveAspectRatio="xMidYMid meet">

<g transform="translate(0.000000,875.000000) scale(0.100000,-0.100000)"
fill="#000000" stroke="none">
<path d="M4537 8738 c-63 -8 -125 -32 -182 -71 -37 -25 -633 -616 -2988 -2966
-1414 -1410 -1334 -1324 -1359 -1473 -30 -180 71 -367 241 -451 63 -30 72 -32
181 -32 104 0 120 3 173 27 32 15 70 37 85 48 30 24 901 889 2695 2679 l1217
1215 1068 -1065 c2266 -2262 2815 -2805 2868 -2842 80 -53 147 -70 259 -65 79
3 101 8 158 37 172 84 272 275 239 453 -28 148 5 112 -898 1011 l-824 820 0
663 0 663 -24 66 c-43 119 -108 190 -226 248 -61 30 -71 32 -175 32 -103 0
-114 -2 -176 -31 -111 -53 -190 -139 -232 -252 -18 -49 -21 -88 -26 -289 l-6
-232 -245 241 c-135 133 -531 525 -880 873 -585 582 -640 634 -697 659 -73 31
-165 44 -246 34z"/>
<path d="M2727 5307 l-1867 -1862 0 -1511 c0 -970 4 -1531 10 -1565 17 -88 63
-170 134 -237 74 -69 142 -99 251 -113 39 -5 875 -8 1865 -6 l1795 2 78 34
c129 55 211 134 255 243 16 40 17 153 22 1453 5 1325 6 1413 23 1465 40 121
127 208 230 230 36 8 242 10 672 8 l620 -3 57 -28 c62 -30 116 -84 148 -148
50 -98 50 -78 50 -1530 0 -797 4 -1377 9 -1405 29 -151 110 -260 226 -303 59
-22 67 -23 370 -18 288 4 314 5 370 26 33 12 76 32 95 45 94 62 170 176 190
285 6 34 10 595 10 1565 l0 1512 -1866 1860 c-1027 1022 -1869 1860 -1873
1861 -3 1 -846 -836 -1874 -1860z m918 -1842 c121 -32 216 -123 258 -247 20
-60 21 -85 25 -583 4 -594 0 -653 -54 -762 -40 -84 -93 -134 -171 -163 -52
-19 -77 -20 -681 -20 l-627 0 -55 26 c-71 33 -115 75 -152 148 -54 108 -58
153 -58 755 0 578 2 606 48 680 30 49 87 103 136 128 96 49 131 51 721 52 467
1 560 -1 610 -14z"/>
</g>
</svg>
